<?xml version="1.0" encoding="utf-8"?>
<!-- Generator: Adobe Illustrator 18.1.1, SVG Export Plug-In . SVG Version: 6.00 Build 0)  -->
<svg version="1.1" xmlns="http://www.w3.org/2000/svg" xmlns:xlink="http://www.w3.org/1999/xlink" x="0px" y="0px"
	 viewBox="0 0 626.4 42.6" enable-background="new 0 0 626.4 42.6" xml:space="preserve">
<g id="Layer_2" display="none">
</g>
<g id="Layer_1">
	<g>
		<g>
			<path fill-rule="evenodd" clip-rule="evenodd" fill="#0C3255" d="M80.2,12.1c-2.6,0-4.9,0.5-6.8,1.5c-1.9,1-3.5,2.6-4.7,4.6V0
				h-9.7v41.9h7.9l1.8-3c1.1,1,2.2,1.7,3.2,2.2c1,0.5,2.1,0.8,3.2,1.1c1.1,0.2,2.4,0.4,3.7,0.4c4.7,0,8.4-1.5,11.1-4.6
				c2.7-3.1,4-6.9,4-11.4c0-4.3-1.2-7.8-3.6-10.4C87.9,13.5,84.5,12.1,80.2,12.1z M81.7,34.4c-1.2,2.1-3.2,3.1-5.7,3.1
				c-1.2,0-2.4-0.2-3.6-0.7c-1.2-0.4-2.4-1.3-3.7-2.5V22.8c1.2-1.4,2.5-2.5,3.9-3.3c1.4-0.8,2.8-1.2,4.1-1.2c2.2,0,3.9,0.8,5.1,2.4
				c1.2,1.6,1.8,3.8,1.8,6.5C83.5,29.9,82.9,32.3,81.7,34.4z M128.4,14c-2.8-1.2-6.1-1.9-10-1.9c-3.9,0-7.2,0.6-10,1.9
				c-2.8,1.2-4.9,3.1-6.3,5.4c-1.4,2.4-2.2,5-2.2,7.9c0,2.9,0.7,5.6,2.2,8c1.5,2.4,3.6,4.2,6.3,5.4c2.8,1.2,6.1,1.8,10,1.8
				c3.9,0,7.2-0.6,10-1.8c2.8-1.2,4.9-3,6.3-5.4c1.5-2.4,2.2-5,2.2-8c0-2.9-0.7-5.5-2.2-7.9C133.3,17.1,131.1,15.3,128.4,14z
				 M124.5,34.7c-1.4,1.9-3.4,2.9-6.2,2.9c-2.7,0-4.8-1-6.2-2.9c-1.4-1.9-2.1-4.4-2.1-7.4c0-2.9,0.7-5.4,2.1-7.3
				c1.4-2,3.4-2.9,6.2-2.9c2.7,0,4.8,1,6.2,2.9c1.4,2,2.1,4.4,2.1,7.3C126.6,30.3,125.9,32.8,124.5,34.7z M161.6,24.3l-2.8-0.9
				c-1.7-0.5-2.8-1-3.5-1.6c-0.7-0.5-1-1.1-1-1.8c0-0.9,0.5-1.6,1.5-2.2c1-0.6,2.5-0.8,4.5-0.8c2.5,0,5.7,0.5,9.6,1.6v-5.5
				c-4-0.7-7.5-1-10.4-1c-5,0-8.7,0.8-11.1,2.5c-2.4,1.6-3.6,3.7-3.6,6.2c0,2.1,0.8,3.8,2.4,5.1c1.6,1.3,4.1,2.5,7.5,3.6l3.3,1.1
				c1.6,0.5,2.9,1.1,3.7,1.6c0.8,0.6,1.2,1.3,1.2,2.1c0,0.9-0.5,1.7-1.6,2.4c-1.1,0.6-2.5,0.9-4.3,0.9c-3.4,0-7.5-0.8-12.3-2.4V41
				c4.4,1.1,8.7,1.6,12.9,1.6c5,0,8.7-0.9,11.3-2.8c2.6-1.8,3.9-4,3.9-6.4c0-1.9-0.7-3.5-2.1-4.9C169.2,27.2,166.2,25.8,161.6,24.3z
				 M194.8,36.2c-0.9-0.7-1.4-2.1-1.4-4.2V17.7h7.7v-5h-7.7V6.9l-9.7,0.9v5h-4v5h4V33c0,2.4,0.4,4.3,1.3,5.5c0.9,1.2,2.2,2.2,3.9,3
				c1.7,0.7,4.2,1.1,7.4,1.1c1.3,0,3.1-0.3,5.5-0.8V37c-1.1,0.2-2.1,0.3-3,0.3C197,37.3,195.7,36.9,194.8,36.2z M235.4,14
				c-2.8-1.2-6.1-1.9-10-1.9c-3.9,0-7.2,0.6-10,1.9c-2.8,1.2-4.9,3.1-6.3,5.4c-1.4,2.4-2.2,5-2.2,7.9c0,2.9,0.7,5.6,2.2,8
				c1.5,2.4,3.6,4.2,6.3,5.4c2.8,1.2,6.1,1.8,10,1.8c3.9,0,7.2-0.6,10-1.8c2.8-1.2,4.9-3,6.3-5.4c1.5-2.4,2.2-5,2.2-8
				c0-2.9-0.7-5.5-2.2-7.9C240.3,17.1,238.2,15.3,235.4,14z M231.6,34.7c-1.4,1.9-3.4,2.9-6.2,2.9c-2.7,0-4.8-1-6.2-2.9
				c-1.4-1.9-2.1-4.4-2.1-7.4c0-2.9,0.7-5.4,2.1-7.3c1.4-2,3.4-2.9,6.2-2.9c2.7,0,4.8,1,6.2,2.9c1.4,2,2.1,4.4,2.1,7.3
				C233.7,30.3,233,32.8,231.6,34.7z M281.9,14.4c-2-1.5-4.5-2.2-7.3-2.2c-2.2,0-4.3,0.5-6.4,1.4c-2.1,0.9-4,2.5-5.8,4.7v-5.5h-9.7
				v29.2h9.7V23.6c1.7-2.1,3.2-3.5,4.7-4.2c1.4-0.7,2.8-1.1,4.1-1.1c0.8,0,1.4,0.1,2.1,0.4c0.6,0.3,1.1,0.7,1.5,1.3
				c0.4,0.6,0.5,1.6,0.5,3.2v18.7h9.7V21.3C284.9,18.2,283.9,15.8,281.9,14.4z"/>
		</g>
	</g>
	<rect x="0" y="12.1" fill-rule="evenodd" clip-rule="evenodd" fill="#0C3255" width="30.5" height="30.5"/>
	<g>
		<g>
			<path fill-rule="evenodd" clip-rule="evenodd" fill="#0C3255" d="M297.8,41.9h6.4V13.1h-6.4V41.9z M297.8,7.8h6.4V2.6h-6.4V7.8z
				 M335.7,12.4c-5.3,0-9.8,2.6-12.7,6h-0.4l0.4-5.4h-6.4v28.9h6.4V23.3c2.5-3.2,6.3-6.3,11.2-6.3c2.9,0,5,1.6,5,4.4v20.5h6.4V20.8
				C345.6,16.5,342,12.4,335.7,12.4z M364.8,32.4V17h8.5v-3.9h-8.5V7.3l-6.4,0.5v5.3h-4.4V17h4.4v17.4c0,2.9,2,8.2,10.5,8.2
				c1.7,0,3.4-0.3,5.1-0.7v-3.6c-1.1,0.2-2.1,0.3-3.1,0.3C365.5,38.7,364.8,36.1,364.8,32.4z M395.3,12.4
				c-10.2,0-15.2,7.6-15.2,15.1c0,4.7,2.4,15.1,16.9,15.1c4.5,0,8.4-0.7,11.9-1.6v-4.2c-3.3,1.3-6.5,1.9-10.1,1.9
				c-7.8,0-11.7-4.3-11.9-10.3h22C409.2,20.9,406.5,12.4,395.3,12.4z M402.1,24.7h-15c0.3-3.9,2.3-8.4,7.8-8.4
				C400.8,16.4,402.2,20.8,402.1,24.7z M426.4,18.5H426l0.4-5.4H420v28.9h6.4v-19c2.1-3.2,5.6-5.9,10.3-5.9c1,0,1.9,0.2,2.9,0.4v-5
				h-1.9C432.6,12.4,428.6,14.9,426.4,18.5z M474,38.8c-3.6,0.1-3.4-2.9-3.4-5V21c0-5.7-4-8.5-11.4-8.5c-4.3,0-8.4,0.8-12.4,2.2v4.3
				c3.1-1.4,7.2-2.6,10.8-2.6c5.9,0,6.6,2.4,6.6,6.5v2h-2.5c-12.4,0-17.9,4.6-17.9,9.8c0,4.8,4.5,7.9,10.4,7.9c4.2,0,8.1-2,10.9-4.3
				c0.5,2.5,2.7,4.3,6,4.3c1.5,0,3.4-0.3,4.7-0.8l-0.5-2.9H474z M464.1,35.4c-2.3,1.6-5.2,2.9-8.2,2.9c-3.1,0-5.8-1.8-5.8-4.5
				c0-4.6,7.2-5.9,11-5.9h3.1V35.4z M487.9,27.6c0-5.6,3.1-11.2,10.8-11.2c3.2,0,6.4,0.6,9.4,1.4v-4.4c-3.3-0.5-6.7-0.9-10.1-0.9
				c-13.3,0-16.9,8.6-16.9,15.1c0,4.7,2.4,15.1,16.9,15.1c3.5,0,7.1-0.7,10.5-1.5v-4.2c-2.8,1.2-6,1.8-9.2,1.8
				C491.3,38.7,487.9,33.4,487.9,27.6z M525,32.4V17h8.5v-3.9H525V7.3l-6.4,0.5v5.3h-4.4V17h4.4v17.4c0,2.9,2,8.2,10.5,8.2
				c1.7,0,3.4-0.3,5.1-0.7v-3.6c-1.1,0.2-2.1,0.3-3.1,0.3C525.8,38.7,525,36.1,525,32.4z M543.2,7.8h6.4V2.6h-6.4V7.8z M543.2,41.9
				h6.4V13.1h-6.4V41.9z M575.4,36.7l-12-23.6h-6.6l14.7,28.9h6.4l15.3-28.9h-5.3L575.4,36.7z M612.8,12.4
				c-10.2,0-15.2,7.6-15.2,15.1c0,4.7,2.4,15.1,16.9,15.1c4.6,0,8.4-0.7,11.9-1.6v-4.2c-3.3,1.3-6.5,1.9-10.1,1.9
				c-7.8,0-11.7-4.3-11.9-10.3h22C626.7,20.9,624,12.4,612.8,12.4z M619.6,24.7h-15c0.3-3.9,2.3-8.4,7.8-8.4
				C618.2,16.4,619.7,20.8,619.6,24.7z"/>
		</g>
	</g>
</g>
</svg>
