<?xml version="1.0" encoding="utf-8"?>
<!-- Generator: Adobe Illustrator 22.1.0, SVG Export Plug-In . SVG Version: 6.00 Build 0)  -->
<svg version="1.1" id="Layer_1" xmlns="http://www.w3.org/2000/svg" xmlns:xlink="http://www.w3.org/1999/xlink" x="0px" y="0px"
	 viewBox="0 0 391.4 159.5" style="enable-background:new 0 0 391.4 159.5;" xml:space="preserve">
<style type="text/css">
	.st0{fill:#9D2136;}
	.st1{fill:#53565A;}
</style>
<g>
	<path class="st0" d="M8.2,45.9c5.6,5,12.7,7.3,22.4,7.3c4,0,9.3-0.4,12.2-1.6c1.3-0.6,1.4-0.7,1.9-2.1c0.7-2.3,1.5-8.2,1.5-8.7
		c0-0.8-0.2-1.2-0.6-1.2c-0.6,0-0.7,0.5-0.8,1.2c-0.2,1.2-1.1,4.1-2.4,5.6c-2.8,2.9-7.3,3.3-11.6,3.3c-6.7,0-12.9-2.6-17.4-7.4
		c-4.3-4.5-6.7-10.8-6.7-17c0-5.8,0.7-12.4,6-17.5c1.2-1.2,5-4.9,15.4-4.9C34,2.9,39,4.8,41.2,6.7c1.7,1.4,2.8,4.1,2.8,6.7
		c0,0.7,0,1.6,0.7,1.6c0.6,0,0.7-0.7,0.8-1.6c0-0.4,0-1.3,0.1-2.4c0-1.5,0.1-3.3,0.1-4.6c0.1-1.5,0.2-2.4,0.3-2.9
		C46,3.2,46,3,46,2.7c0-0.5-0.2-0.8-0.8-0.9c-0.7-0.1-1.4-0.2-2-0.3c-1.7-0.2-3.3-0.4-5.1-0.7c-4-0.7-8.2-0.8-9.8-0.8
		c-9,0-15.8,2.4-20.7,7.3C2,12.9,0,20.5,0,25.8C0,34.2,2.8,41,8.2,45.9z"/>
	<path class="st0" d="M93.7,51c-0.4,0-1.4,0-2.2-0.3c-0.7-0.3-2.7-1-5-6.4c-2.4-5.6-7.2-17.8-10.4-25.9c-1.7-4.4-3-7.5-3.3-8.3
		c-0.8-1.9-1.1-2.3-1.5-2.3c-0.6,0-0.8,0.5-1.6,2.4L56.2,45.7c-1.1,2.8-2.2,5-5.1,5.2c-0.4,0.1-1,0.1-1.3,0.1c-0.7,0-1,0.3-1,0.6
		c0,0.6,0.9,0.6,1.3,0.6c1.9,0,3.9-0.1,5.2-0.2c0.6,0,1.1-0.1,1.3-0.1c0.3,0,1,0,1.8,0.1c1.2,0.1,2.6,0.1,3.5,0.1
		c0.5,0,1.2-0.2,1.2-0.6c0-0.2-0.1-0.6-1-0.6h-0.5c-1.4,0-2-0.5-2-1.6c0-1,0.4-2.7,1.1-4.7l3-8.4c0.2-0.4,0.3-0.4,0.5-0.4h12.3
		c0.2,0,0.3,0.1,0.4,0.2l5.3,13.5c0.4,1,0,1.2-0.1,1.2c-0.4,0.1-0.6,0.4-0.6,0.6c0,0.5,0.6,0.6,1.9,0.6c4.2,0.1,8.9,0.1,10.2,0.1
		c0.6,0,1.2-0.1,1.2-0.6C94.7,51.4,94.6,51,93.7,51z M75.7,33.1C75.7,33.1,75.7,33.1,75.7,33.1l-10.9,0c0,0,0-0.1,0-0.2L70,18
		c0-0.1,0.1-0.4,0.2-0.5c0.1,0.1,0.2,0.4,0.2,0.5l5.3,14.9C75.7,33,75.7,33.1,75.7,33.1z"/>
	<path class="st0" d="M143,50.3c-0.4,0.1-0.7,0.5-0.7,0.8c0,0.5,0.6,0.6,2.2,0.8c2.2,0.1,9.5,0.4,10.7,0.4c0.3,0,1.2,0,1.2-0.7
		c0-0.4-0.5-0.6-1-0.6h0c-0.9-0.1-2.3-0.2-3.4-0.5c-2.4-0.6-2.9-4-3.1-5.7l-4.3-35.2c-0.1-0.9-0.2-1.9-0.8-1.9
		c-0.6,0-0.9,0.6-1.2,1.2l-17,34.6L107.6,8.9c-0.5-0.9-0.7-1.2-1.2-1.2c-0.5,0-0.8,0.6-0.9,1.8l-4.5,37c-0.4,3-1,4.2-2.4,4.3
		C97.8,51,97.8,51,97.3,51c-0.7,0-1.1,0.3-1.1,0.6c0,0.7,0.7,0.7,1.2,0.7c1,0,2.5-0.1,3.6-0.1c0.7,0,1.3-0.1,1.6-0.1
		c0.2,0,0.6,0,1.2,0.1c1.2,0.1,3,0.1,4.4,0.1c0.6,0,1.3,0,1.3-0.7c0-0.1-0.1-0.5-0.8-0.6c-0.2,0-0.4,0-0.6-0.1
		c-0.4,0-0.8-0.1-1.3-0.1c-1.4-0.3-1.5-1.4-1.5-1.8c0-1,0-1.6,0.1-2.5l2.4-25.3c0.8,1.7,3.1,6.4,6.9,14l0.4,0.7
		c0.2,0.3,1.8,3.4,3.3,6.4c1.5,2.9,3,6,3.6,6.9c1.4,2.4,1.7,3,2.2,3c0.6,0,0.9-0.5,1.8-2.4l14.5-29.4l2.9,28.2
		C143.4,49.5,143.2,50.2,143,50.3z"/>
	<path class="st0" d="M159.4,9.9c0.1,0,1.1,0.1,1.6,0.1c2,0.4,2.4,1.3,2.5,3c0.1,1.8,0.1,3.4,0.1,12.3v10.1c0,5.3,0,9.8-0.3,12.3
		c-0.2,2-0.7,2.9-1.6,3.1c-0.5,0.1-0.7,0.1-1.2,0.1c-0.7,0-1.1,0.2-1.1,0.7c0,0.3,0.2,0.6,1.1,0.6c1.1,0,2.2-0.1,3.1-0.1
		c1,0,1.9-0.1,2.9-0.1c0.3,0,1.9,0.1,3.8,0.2c1,0,1.8,0,2.6,0.1c0.6,0,1.1,0.1,1.6,0.1c10.6,0,15.5-6.6,15.5-12.7
		c0-3-1.2-5.8-3.5-8.1c-1.8-1.8-4.2-3.2-6.6-4c2.4-2,5.5-5.1,5.5-10.3c0-0.9-0.2-3.4-2.3-5.5c-2.1-2.1-5.5-3.2-10-3.2
		c-1.5,0-2.8,0.1-4,0.1c-0.9,0-1.8,0.1-2.5,0.1c0,0-0.2,0-0.4,0c-1.2,0-4.3-0.2-6.6-0.2c-1,0-1.2,0.4-1.2,0.6
		C158.3,9.4,158.4,9.9,159.4,9.9z M171.5,29.4c0.8,0,1.7,0,2.3,0.1c1.3,0.1,2.5,0.2,4.5,1.5c5.3,3.6,5.7,9.8,5.7,11.6
		c0,5.5-4.2,7.4-7.8,7.4c-0.5,0-3.3,0-4.9-0.9c-1.8-0.8-1.8-1.5-2-4.1l0-0.5c-0.1-0.5-0.1-8.1-0.1-12.2v-2.6c0-0.2,0-0.2,0.2-0.2
		C169.8,29.4,170.6,29.4,171.5,29.4z M178.3,25.7c-1.2,1.4-2.3,1.6-5.6,1.6c-2.1,0-2.9-0.1-3.3-0.2c-0.2-0.1-0.2-0.2-0.2-0.5v-15
		c0-0.2,0-0.3,0.7-0.4c0.6-0.2,2-0.3,2.5-0.3c5.6,0,7.6,5.2,7.6,9.7C180,22.5,179.4,24.4,178.3,25.7z"/>
	<path class="st0" d="M239.2,52.2C239.3,52.2,239.3,52.2,239.2,52.2C239.3,52.2,239.3,52.2,239.2,52.2c1.5,0,4.1-0.1,5.4-0.2
		c0.4,0,0.7,0,0.7,0c0.1,0,0.4,0,0.8,0c1.4,0.1,4.3,0.2,6.9,0.2c1,0,1.1-0.4,1.1-0.6c0-0.5-0.3-0.6-0.9-0.6c-0.3,0-1.7-0.1-2.5-0.3
		c-1.7-0.4-1.9-1-2.2-3c-0.3-2.1-0.3-5.8-0.3-10.1l0-12.3c0-2.7,0-4.8,0-6.4c0-3.5,0-4.6,0.1-5.9c0.1-2,0.4-2.8,2.1-3.1
		c0.2,0,0.4-0.1,0.6-0.1c0.2,0,0.4,0,0.6-0.1c0.4-0.1,0.9-0.2,0.9-0.6c0-0.6-0.9-0.6-1.2-0.6c-1.4,0-3.8,0.1-5.1,0.2
		c-0.5,0-0.8,0-0.9,0c0,0-0.3,0-0.7,0c-1.3-0.1-3.9-0.2-5.5-0.2c-0.6,0-1.2,0.1-1.2,0.6c0,0.5,0.6,0.6,0.9,0.6c0.2,0,0.3,0,0.5,0.1
		c0.3,0,0.6,0.1,1,0.1c1.2,0.2,1.7,1,1.8,2.9c0.1,1.8,0.1,3.4,0.1,12.3v10.1c0,5.1,0,9.8-0.3,12.2c-0.2,1.7-0.4,2.9-1.4,3.1
		c-0.4,0.1-0.9,0.2-1.3,0.2c-0.5,0-1.4-0.1-1.7-0.1c-1.9-0.3-3.8-0.8-7-4.1c-3.4-3.5-7.3-8.4-12.3-14.5c6.1-5,7.1-10.2,7.1-12.8
		c0-4.9-3.1-7.7-4.1-8.4c-3.3-2.3-7.5-2.6-11.2-2.6c-1.2,0-3.5,0.1-5.2,0.1c-0.9,0-1.7,0.1-1.9,0.1c0,0-0.2,0-0.4,0
		c-1.2-0.1-4.3-0.2-6.7-0.2c-0.8,0-1,0.4-1,0.6c0,0.2,0.1,0.6,0.9,0.6c0.5,0,1.2,0.1,1.6,0.1c2,0.4,2.4,1.3,2.6,3.1
		c0.1,1.8,0.1,3.4,0.1,12.3l0,12.3c0,4.3,0,8.7-0.3,10.8c-0.2,1.6-0.6,2.2-1.6,2.4c-0.5,0.1-1,0.1-1.4,0.1c-0.5,0-1,0.2-1,0.6
		c0,0.6,0.5,0.7,1.1,0.7c1,0,2.4-0.1,3.6-0.1c0.9,0,1.8-0.1,2.2-0.1c0.1,0,0.3,0,0.6,0c1.2,0.1,4.2,0.2,6.9,0.2
		c0.9,0,1.1-0.4,1.1-0.7c0-0.3-0.3-0.6-1.1-0.6c-0.5,0-1.2-0.1-1.9-0.1c-2.1-0.3-2.3-1.5-2.5-3.1c-0.3-2.4-0.3-7.4-0.3-12.7v-0.9
		c0-0.1,0-0.1,0-0.1c0,0,0,0,0.1,0l6.9,0.1c0.3,0,0.4,0.1,0.7,0.3c0.4,0.6,1.1,1.5,2,2.5c1.3,1.7,2.9,3.8,4.5,5.8
		c0.5,0.6,0.9,1.2,1.4,1.8c2.8,3.6,4.6,6,7.1,7.1c1.5,0.6,3,0.8,6.2,0.8H239.2z M219.5,22.2c0,4-1.2,7.1-3.3,8.4c-1.4,0.9-3,1-4.4,1
		c-2.3,0-5.1-0.4-5.9-0.9c-0.2-0.1-0.2-0.3-0.2-0.7V11.8c0-0.3,0.1-0.4,0.3-0.4c0.8-0.2,2.3-0.3,3.9-0.3
		C215.9,11,219.5,15.2,219.5,22.2z"/>
	<path class="st0" d="M278.6,8.6c-0.5,0-0.9,0-1.3,0c-2.8,0-5.4,0.1-6.8,0.2c-0.5,0-0.8,0-0.9,0c0,0-0.3,0-0.6,0
		c-1.3-0.1-4.4-0.2-6.6-0.2c-0.8,0-1.2,0.2-1.2,0.7c0,0.3,0.4,0.6,0.9,0.6c0.6,0,1.5,0.1,1.9,0.1c1.9,0.4,2.4,1.3,2.5,3
		c0.1,1.7,0.1,3.4,0.1,12.3l0,12c0,4.4,0,8.3-0.3,10.5c-0.3,1.9-0.8,2.8-1.6,3c-0.6,0.1-1,0.2-1.5,0.2c-0.6,0-0.9,0.3-0.9,0.6
		c0,0.6,0.8,0.6,1.1,0.6c0.5,0,1.1,0,1.7-0.1c0.7,0,1.5-0.1,2.2-0.1c1.2-0.1,2-0.1,2.3-0.1c0.1,0,0.3,0,0.7,0.1
		c0.9,0.1,2.4,0.2,4.1,0.3c2.6,0.2,5.9,0.3,8.4,0.3c7.7,0,13.6-2.2,18.1-6.7c1.9-2,6.5-7.5,6.5-16.2c0-7.3-3.1-12-5.8-14.6
		C294.9,8.4,284.7,8.5,278.6,8.6z M272.4,24.2c0-4.1,0-9.8,0.1-11.7c0-0.5,0.1-0.7,0.7-1c0.3-0.2,2.3-0.4,3.3-0.4
		c6.1,0,13,0.5,18.9,6.4c2.1,2.1,5.7,6.7,5.7,14.4c0,5.7-1.6,10.5-4.3,13.3c-3.4,3.4-8.3,5.2-13.9,5.2c-5.4,0-8.7-0.8-9.8-2.5
		c-0.5-0.6-0.6-2.6-0.6-4.4c0-0.3,0-0.9,0-1.9c0-2.3-0.1-6.2-0.1-10.5V24.2z"/>
	<path class="st0" d="M320.1,46.9c6.6,5.5,14.5,6.1,19.9,6.1c3.7,0,9-0.8,12.5-2.6c0.8-0.5,0.9-0.6,0.9-3.3V41c0-2.4,0-4.1,0.1-6.1
		c0.1-1.9,0.5-3,2-3.2c0.5-0.1,0.7-0.1,1.1-0.1c0.8,0,1-0.4,1-0.6c0-0.6-0.8-0.6-1.1-0.6c-1.3,0-3.8,0.1-5.1,0.1c-0.5,0-0.9,0-1,0
		c-0.1,0-0.3,0-0.8,0c-1.3,0-4.1-0.1-6.1-0.1c-0.6,0-1.2,0.1-1.2,0.6c0,0.3,0.4,0.6,1,0.6c0.5,0,1.2,0.1,1.6,0.1
		c2.2,0.3,2.5,1,2.5,5.5V47c0,1-0.6,1.6-1.1,1.9c-1.4,0.7-4.3,1.1-6.3,1.1c-5.9,0-10.9-2-15.2-6.2c-1.7-1.6-6.1-7.6-6.1-15.5
		c0-6.4,2-11.6,5.6-14.3c4.3-3.3,8.3-3.5,12.3-3.5c7.3,0,12.2,2.3,13.8,4.6c0.9,1.4,1.2,3.4,1.3,4.1c0.1,0.4,0.2,1,0.6,1
		c0.7,0,0.7-0.5,0.7-1.4c0-4.3,0.2-6.6,0.4-7.8c0.1-0.5,0.1-0.8,0.1-1c0-0.3,0-0.7-0.7-0.7h0c-1.4-0.1-4.1-0.4-5.1-0.6l-0.5-0.1
		c-2.3-0.4-5.1-0.9-9.2-0.9c-3.9,0-9.8,0.4-15.1,3.5c-6.4,3.8-10.3,11-10.3,19.2C312.8,36.9,315.5,43.1,320.1,46.9z"/>
	<path class="st0" d="M365.4,9.9c0.5,0,1.2,0.1,1.6,0.1c1.9,0.4,2.3,1.3,2.4,3.1c0.1,1.8,0.1,3.4,0.1,12.3v10.1
		c0,5.2-0.1,8-0.1,10.2c-0.1,4.4-1,4.9-2,5.2c-0.4,0.1-0.9,0.2-1.3,0.2c-0.4,0-0.8,0.3-0.8,0.6c0,0.6,0.8,0.6,1.1,0.6
		c0.8,0,1.6-0.1,2.3-0.1c0.7,0,1.4-0.1,2.2-0.1c1.8,0,4,0.1,5.9,0.1c0.7,0,1.4,0,2.1,0.1c1,0,1.9,0,3,0.1c1.5,0,3.2,0.1,5.7,0.1
		c2.3,0,2.8-0.1,3.1-1.6c0.2-1.2,0.7-5.4,0.7-5.9c0-0.4,0-1.2-0.6-1.2c-0.5,0-0.7,0.6-0.8,1.1c-0.5,2.5-1,3.7-2.9,4.3
		c-1.5,0.4-3.4,0.4-4.6,0.4l-0.4,0c-2.5,0-4-0.2-4.9-0.6c-1.4-0.6-1.7-1.8-1.8-4.2c0-0.8,0-4,0-6.5c0-1.1,0-2,0-2.6v-4.9
		c0-0.2,0-0.3,0.3-0.3c1.1,0,6.5,0.1,8.1,0.3c2.6,0.2,2.8,1.1,3.1,1.9c0.1,0.5,0.2,1.2,0.2,1.6c0,0.3,0,1.1,0.6,1.1
		c0.5,0,0.6-0.5,0.6-0.9c0-0.3,0-0.6,0.1-1c0-0.8,0.1-1.8,0.2-3.1c0.1-1.1,0.3-2,0.4-2.7c0.1-0.5,0.1-0.8,0.1-0.9
		c0-0.5-0.3-0.6-0.4-0.6c-0.3,0-0.6,0.2-0.9,0.6c-0.5,0.7-1.5,0.9-3,0.9c-1.4,0.1-8.3,0.2-9.1,0.2c-0.1,0-0.2,0-0.2-0.5V11.8
		c0-0.4,0.1-0.4,0.2-0.4c0.1,0,6.8,0.1,7.7,0.1c3.4,0.2,3.9,0.7,4.2,1.9c0.3,0.6,0.4,1.3,0.5,2.1c0,0.8,0.4,0.9,0.6,0.9
		c0.3,0,0.6-0.2,0.6-1.2c0-1,0.1-1.8,0.2-2.6l0.1-0.9c0.1-1,0.3-1.8,0.4-2.3c0.1-0.3,0.1-0.6,0.1-0.7c0-0.5-0.2-0.6-0.4-0.6
		c-0.2,0-0.3,0-0.5,0.1c-0.1,0-0.2,0.1-0.3,0.1c-0.5,0.2-1.2,0.3-2.6,0.3c-1.3,0.1-13.2,0.1-13.7,0.1c-2.1,0-3.5-0.1-4.7-0.1
		c-0.9,0-1.6-0.1-2.2-0.1c-0.4,0-1.2,0-1.2,0.7C364.4,9.6,364.9,9.9,365.4,9.9z"/>
</g>
<g>
	<g>
		<path class="st1" d="M135.2,67.8c-0.1,0-0.3,0-0.6,0.1c-0.3,0.1-0.7,0.2-1.3,0.2c-1.2,0.2-2.8,0.3-4.8,0.3h-25.3
			c-0.8,0-3.4-0.1-5.3-0.3c-1.1-0.1-1.8-0.4-2.3-0.6c-0.3-0.1-0.5-0.2-0.7-0.2c-0.4,0-0.6,0.6-0.8,1.3l0,0.1
			c-0.1,0.5-1.5,6.3-1.5,7.1c0,0.7,0.4,0.8,0.5,0.8c0.4,0,0.6-0.2,0.8-0.8c0.2-0.5,0.4-0.9,1.1-2.1c1-1.5,2.5-2,6.7-2.1
			c1.7,0,3.3-0.1,5-0.1c1.6,0,3.2,0,4.8-0.1v28.3c0,6.6,0,11.8-0.3,14.6c-0.2,1.8-0.6,3.3-1.8,3.6c-0.4,0.1-1.3,0.3-2,0.3
			c-0.5,0-0.7,0.3-0.7,0.6c0,0.7,0.8,0.7,1.3,0.7c1.4,0,4-0.1,5.5-0.2c0.6,0,1,0,1.1,0c0.1,0,0.4,0,0.8,0c1.5,0.1,4.6,0.2,7.5,0.2
			c1,0,1.3-0.4,1.3-0.7c0-0.3-0.2-0.6-0.7-0.6c-0.6,0-2-0.1-3-0.3c-1.8-0.2-2.3-1.4-2.5-3.6c-0.3-2.8-0.3-8-0.3-14.6V71.5
			c1.4,0,2.7,0,4.1,0.1c1.4,0,2.8,0,4.2,0.1c6.9,0.1,8,1.9,8.1,3.5c0,0.1,0,0.3,0,0.4c0,0.1,0,0.2,0,0.4c0.1,0.9,0.2,1.3,0.7,1.3
			c0.2,0,0.6-0.1,0.6-1.1c0-0.3,0-1.1,0.1-2.1c0.1-1.7,0.1-4,0.1-5.3C135.7,68.3,135.7,67.8,135.2,67.8z"/>
		<path class="st1" d="M184.3,118.2c-0.2,0-1.6-0.1-2.1-0.1c-1.9-0.3-3.8-0.8-7-4.1c-3.4-3.5-7.3-8.4-12.3-14.5
			c6.2-5,7.1-10.2,7.1-12.8c0-4.9-3.1-7.7-4.1-8.4c-3.3-2.3-7.5-2.6-11.2-2.6c-1.2,0-3.5,0.1-5.2,0.1c-0.9,0-1.7,0.1-1.9,0.1
			c0,0-0.2,0-0.4,0c-1.2-0.1-4.3-0.2-6.7-0.2c-0.8,0-1,0.4-1,0.6c0,0.2,0.1,0.6,0.9,0.6c0.5,0,1.2,0.1,1.6,0.1
			c2,0.4,2.4,1.3,2.6,3.1c0.1,1.8,0.1,3.4,0.1,12.3l0,12.3c0,4.3,0,8.7-0.3,10.8c-0.2,1.6-0.6,2.2-1.6,2.4c-0.5,0.1-1,0.1-1.4,0.1
			c-0.5,0-1,0.2-1,0.6c0,0.6,0.5,0.7,1.1,0.7c1,0,2.4-0.1,3.6-0.1c0.9,0,1.8-0.1,2.2-0.1c0.1,0,0.3,0,0.6,0c1.2,0.1,4.2,0.2,6.9,0.2
			c0.9,0,1.1-0.4,1.1-0.7c0-0.3-0.3-0.6-1.1-0.6c-0.5,0-1.2-0.1-1.9-0.1c-2.1-0.3-2.3-1.5-2.5-3.1c-0.3-2.4-0.3-7.4-0.3-12.7v-0.9
			c0-0.1,0-0.1,0-0.1c0,0,0,0,0.1,0l6.9,0.1c0.3,0,0.4,0.1,0.7,0.3c0.4,0.6,1.1,1.5,2,2.5c1.3,1.7,2.9,3.8,4.5,5.8
			c0.5,0.6,0.9,1.2,1.4,1.8c2.8,3.6,4.6,6,7.1,7.1c1.5,0.6,3,0.8,6.2,0.8h4.7c0.7,0,1.4,0,1.4-0.6
			C185.2,118.7,185.1,118.2,184.3,118.2z M164.1,89.5c0,4-1.2,7.1-3.3,8.4c-1.4,0.9-3,1-4.4,1c-2.3,0-5.1-0.4-5.9-0.9
			c-0.2-0.1-0.2-0.3-0.2-0.7V79.1c0-0.3,0.1-0.4,0.3-0.4c0.8-0.2,2.3-0.3,3.9-0.3C160.5,78.3,164.1,82.5,164.1,89.5z"/>
		<path class="st1" d="M223.3,75.8c-1.3,0-3.2,0.1-4.2,0.2c-0.5,0-0.8,0-0.9,0c-0.1,0-0.3,0-0.6,0c-1.2-0.1-3.7-0.2-5.9-0.2
			c-0.3,0-1.1,0-1.1,0.7c0,0.3,0.4,0.6,0.8,0.6c0.6,0,1.4,0.1,1.9,0.1c2.1,0.3,2.2,1.2,2.3,3.1c0.1,1.8,0.1,3.4,0.1,12.2v7.1
			c0,5.1-0.4,10.7-3.3,14c-2.3,2.6-5.2,3.8-9.1,3.8c-3.6,0-6.4-1-8.8-3.1c-2.1-1.9-4.1-4.9-4.1-13.9v-8c0-8.8,0-10.4,0.1-12.3
			c0.1-2,0.4-2.9,1.9-3.1c0.5-0.1,1.1-0.1,1.5-0.1c0.5,0,1-0.2,1-0.6c0-0.6-0.6-0.6-1.1-0.6c-1.2,0-3.2,0.1-4.7,0.1
			c-0.8,0-1.4,0.1-1.6,0.1c-0.1,0-0.5,0-1.1,0c-1.4-0.1-3.8-0.2-5.9-0.2c-0.6,0-1.2,0.1-1.2,0.7c0,0.3,0.3,0.6,0.9,0.6
			c0.6,0,1.4,0.1,1.7,0.1c1.9,0.2,2.3,1.2,2.3,3.1c0.2,1.8,0.2,3.4,0.2,12.2v8.4c0,7.3,1.6,12,5,15.2c2.9,2.7,7.2,4.1,12.7,4.1
			c4,0,8.2-0.5,12.4-4.1c4.9-4.2,5.5-11.6,5.5-17.6v-6c0-8.8,0-10.4,0.1-12.2c0.1-2.1,0.5-3,2.1-3.2c0.7-0.1,0.8-0.1,1.2-0.1
			c0.5,0,0.9-0.3,0.9-0.6C224.4,75.8,223.6,75.8,223.3,75.8z"/>
		<path class="st1" d="M252.3,108.2c0-4.5-1.5-8.2-8.9-13.9l-1.6-1.2c-5.7-4.3-7.1-6.2-7.1-9.2c0-3.8,2.8-6.3,6.9-6.3
			c4.9,0,6.8,1.9,7.4,3.1c0.6,1.1,0.7,2.4,0.8,3l0,0.1c0.1,0.4,0.1,0.9,0.6,0.9c0.6,0,0.6-0.8,0.6-1.6c0-3.1,0.2-5.2,0.2-6.1
			c0-0.2,0-0.4,0-0.5c0-0.5-0.4-0.6-0.8-0.6c-0.4,0-0.9-0.1-2.3-0.3c-1.7-0.4-3.4-0.5-5.5-0.5c-7.6,0-12.6,4.2-12.6,10.6
			c0,4,1.3,7.6,7.9,12.9l2.7,2.1c5.1,4.1,6.6,6.4,6.6,10c0,3.5-2.8,7-8.1,7c-1.7,0-7.5-0.4-8.6-5.9c-0.2-0.8-0.2-1.6-0.2-2
			c0-0.2,0-0.8-0.6-0.8c-0.6,0-0.7,0.7-0.7,1.1l0,0.4c-0.1,1.1-0.2,3.2-0.2,6c0,1.6,0,2,1,2.5l0,0c2.3,1,4.8,1.5,8.1,1.5
			c3.6,0,6.8-0.8,9.2-2.4C251,115.2,252.3,111.1,252.3,108.2z"/>
		<path class="st1" d="M295.5,83.1c0-0.2,0-0.8,0-1.7c0-1.7,0.1-3.9,0.1-5.2c0-0.4-0.2-0.8-0.6-0.8c-0.2,0-0.3,0-0.7,0.1
			c-0.2,0-0.3,0.1-0.6,0.1c-0.9,0.2-2.9,0.3-4.8,0.3h-22.1c0,0-1.9-0.1-4.3-0.3c-0.7-0.1-1.4-0.3-1.9-0.5c-0.5-0.1-0.8-0.3-1.1-0.3
			c-0.3,0-0.6,0.4-0.8,1.2l-0.1,0.6c-0.8,3.6-1.3,5.8-1.2,6.1c0,0.5,0.2,0.8,0.5,0.8c0.4,0,0.6-0.2,0.8-0.6l0.1-0.2
			c0.1-0.4,0.4-1.1,0.9-1.9c0.9-1.4,1.8-2,6.1-2.1c2.6-0.1,6.1-0.1,8.3-0.1v23.9c0,5.1,0,9.9-0.3,12.3c-0.3,2.4-0.5,3-1.6,3.2
			c-0.5,0.1-0.9,0.1-1.5,0.1c-0.6,0-0.9,0.3-0.9,0.6c0,0.6,0.6,0.6,1.2,0.6c1.3,0,3.7-0.1,5-0.2c0.5,0,0.9,0,1,0c0.1,0,0.3,0,0.7,0
			c1.3,0.1,4.3,0.2,7,0.2c0.5,0,1.1-0.1,1.1-0.7c0-0.3-0.3-0.6-1-0.6c-0.5,0-1.8-0.1-2.6-0.3c-1.6-0.4-1.7-1.2-1.9-2.8
			c-0.2-2.1-0.3-6.1-0.3-12.5V78.8c0.9,0,1.7,0,2.7,0c1.2,0,2.4,0,3.8,0c6.7,0.1,7.5,0.7,7.8,3.3c0.1,0.7,0.1,0.7,0.1,0.9
			c0,0.2,0,1,0.6,1C295.1,84.1,295.5,83.9,295.5,83.1z"/>
	</g>
	<g>
		<rect x="0.1" y="92.3" class="st1" width="83.1" height="1"/>
	</g>
	<g>
		<rect x="308" y="92.3" class="st1" width="83.1" height="1"/>
	</g>
</g>
<g>
	<path d="M3.2,145c1.5,0,2.6,0.1,3.4,0.6c1.2,0.7,1.9,2,1.9,3.5c0,1.4-0.6,2.7-1.7,3.4c-0.8,0.6-1.9,0.7-3.4,0.7H1.5v6H0.1V145H3.2z
		 M1.5,151.8h2.1c2.2,0,3.4-0.8,3.4-2.7c0-2-1.2-2.7-3.5-2.7H1.5V151.8z"/>
	<path d="M12.5,159.2h-1.4V145h3.8c1.3,0,2.4,0.1,3.4,0.8c1.1,0.8,1.8,2.2,1.8,3.7c0,2.2-1.4,4-3.4,4.1l3.4,5.6h-1.7l-4.2-6.9h1.3
		c1.8,0,3-1.2,3-2.8c0-1-0.3-1.8-1-2.4c-0.8-0.7-1.8-0.7-3.1-0.7h-2.1V159.2z"/>
	<path d="M23.3,159.2V145h1.4v14.2H23.3z"/>
	<path d="M27.9,145l4.5,12.1l4.5-12.1h1.4L33,159.2h-1.1L26.5,145H27.9z"/>
	<path d="M37.9,159.2l5.5-14.2h1.7l5.5,14.2h-1.5l-1.7-4.5h-6.3l-1.7,4.5H37.9z M44.2,146.3l-2.7,7.1h5.4L44.2,146.3z"/>
	<path d="M53.4,159.2v-12.8h-2.8V145h7.1v1.4h-2.8v12.8H53.4z"/>
	<path d="M67.4,151.4v1.4h-6v5.1h6v1.4H60V145h7.4v1.4h-6v5H67.4z"/>
	<path d="M80.1,145c3.1,0,4.7,1.1,4.7,3.8c0,1.3-0.5,2.2-1.5,2.8c1.5,0.6,2.3,1.8,2.3,3.5c0,3-1.7,4.2-5,4.2h-3.1V145H80.1z
		 M78.8,151.1h0.8c2.3,0,3.7-0.4,3.7-2.4c0-1.7-1.1-2.3-3.4-2.3h-1.2V151.1z M78.8,157.9h2c2.3,0,3.4-0.8,3.4-2.7
		c0-1.8-1.1-2.7-3.4-2.7h-2V157.9z"/>
	<path d="M86.8,159.2l5.5-14.2H94l5.5,14.2H98l-1.7-4.5h-6.3l-1.7,4.5H86.8z M93.1,146.3l-2.7,7.1h5.4L93.1,146.3z"/>
	<path d="M110.7,145h1.4v14.2h-1.7l-7.8-12.5l0.2,12.5h-1.4V145h1.7l7.8,12.5L110.7,145z"/>
	<path d="M117,159.2h-1.4V145h1.4v7.9l6.6-7.9h1.7l-5.7,6.9l5.6,7.3h-1.7l-4.8-6.3l-1.6,1.9V159.2z"/>
	<path d="M127.3,159.2V145h1.4v14.2H127.3z"/>
	<path d="M141.5,145h1.4v14.2h-1.7l-7.8-12.5l0.2,12.5h-1.4V145h1.7l7.8,12.5L141.5,145z"/>
	<path d="M160.3,152.4c-0.2,4.2-3.4,7.1-7.3,7.1c-4.1,0-7.2-3.2-7.2-7.5c0-2,0.8-3.8,2.2-5.2c1.4-1.4,3.1-2.1,5.2-2.1
		c2.8,0,5,1.4,6.4,3.9h-1.7c-1.3-1.7-2.8-2.5-4.7-2.5c-3.4,0-5.8,2.8-5.8,6c0,3.5,2.6,6.1,5.9,6.1c2.5,0,4.9-1.8,5.5-4.5h-7.2v-1.3
		H160.3z"/>
	<path d="M190.6,156.7l3.6-11.7h1.4l-4.4,14.2H190l-2.9-11.6l-2.9,11.6h-1.2l-4.4-14.2h1.4l3.5,11.7l2.9-11.7h1.3L190.6,156.7z"/>
	<path d="M204.9,151.4v1.4h-6v5.1h6v1.4h-7.4V145h7.4v1.4h-6v5H204.9z"/>
	<path d="M206.6,159.2l5.5-14.2h1.7l5.5,14.2h-1.5l-1.7-4.5h-6.3l-1.7,4.5H206.6z M212.9,146.3l-2.7,7.1h5.4L212.9,146.3z"/>
	<path d="M221.3,159.2V145h1.4v12.8h5v1.4H221.3z"/>
	<path d="M231.2,159.2v-12.8h-2.8V145h7.1v1.4h-2.8v12.8H231.2z"/>
	<path d="M237.8,159.2V145h1.4v6.4h6.8V145h1.4v14.2h-1.4v-6.5h-6.8v6.5H237.8z"/>
	<path d="M257.5,145h2.1l4.9,12.4l4.9-12.4h2.1v14.2h-1.3v-12.6l-5,12.6h-1.3l-5-12.6v12.6h-1.3V145z"/>
	<path d="M273,159.2l5.5-14.2h1.7l5.5,14.2h-1.5l-1.7-4.5h-6.3l-1.7,4.5H273z M279.4,146.3l-2.7,7.1h5.4L279.4,146.3z"/>
	<path d="M297,145h1.4v14.2h-1.7l-7.8-12.5l0.2,12.5h-1.4V145h1.7l7.8,12.5L297,145z"/>
	<path d="M300.1,159.2l5.5-14.2h1.7l5.5,14.2h-1.5l-1.7-4.5h-6.3l-1.7,4.5H300.1z M306.4,146.3l-2.7,7.1h5.4L306.4,146.3z"/>
	<path d="M328.6,152.4c-0.2,4.2-3.4,7.1-7.3,7.1c-4.1,0-7.2-3.2-7.2-7.5c0-2,0.8-3.8,2.2-5.2c1.4-1.4,3.1-2.1,5.2-2.1
		c2.8,0,5,1.4,6.4,3.9h-1.7c-1.3-1.7-2.8-2.5-4.7-2.5c-3.4,0-5.8,2.8-5.8,6c0,3.5,2.6,6.1,5.9,6.1c2.5,0,4.9-1.8,5.5-4.5h-7.2v-1.3
		H328.6z"/>
	<path d="M338.8,151.4v1.4h-6v5.1h6v1.4h-7.4V145h7.4v1.4h-6v5H338.8z"/>
	<path d="M342.4,145h2.1l4.9,12.4l4.9-12.4h2.1v14.2H355v-12.6l-5,12.6h-1.3l-5-12.6v12.6h-1.3V145z"/>
	<path d="M367.2,151.4v1.4h-6v5.1h6v1.4h-7.4V145h7.4v1.4h-6v5H367.2z"/>
	<path d="M380,145h1.4v14.2h-1.7l-7.8-12.5l0.2,12.5h-1.4V145h1.7l7.8,12.5L380,145z"/>
	<path d="M386.6,159.2v-12.8h-2.8V145h7.1v1.4H388v12.8H386.6z"/>
</g>
</svg>
