<?xml version="1.0" encoding="utf-8"?>
<!-- Generator: Adobe Illustrator 21.1.0, SVG Export Plug-In . SVG Version: 6.00 Build 0)  -->
<svg version="1.1" id="Layer_1" xmlns="http://www.w3.org/2000/svg" xmlns:xlink="http://www.w3.org/1999/xlink" x="0px" y="0px"
	 viewBox="0 0 324 77" style="enable-background:new 0 0 324 77;" xml:space="preserve">
<style type="text/css">
	.st0{fill:#F6F5FA;}
	.st1{fill:#77777A;}
	.st2{fill:#5C3896;}
	.st3{fill:#FFFFFF;}
</style>
<rect x="68" y="6.6" class="st0" width="217.2" height="65.2"/>
<path class="st1" d="M84,35.7v-0.5c1.1,0,1.9-0.1,1.9-1.2V22.3c-0.1-0.9-0.9-0.9-1.7-1v-0.5H88L93.6,33L99,20.8h3.4v0.5
	c-1.1,0.1-1.6,0.2-1.6,1.4V34c0,1.1,0.6,1.2,1.6,1.2v0.5h-5.6v-0.5c1.5-0.1,1.8-0.3,1.8-1.2V22.7h0l-5.6,13h-0.4l-6-12.8h0V34
	c0,0.9,0.8,1.2,2,1.2v0.5H84z"/>
<path class="st1" d="M111.9,35.9v-1.5c-0.8,0.9-2,1.5-3.3,1.5c-2.3,0-2.8-1.1-2.8-2.7v-5.9c0-0.4-0.3-0.5-1.3-0.6v-0.4h3v7.4
	c0,1.1,0.9,1.4,1.9,1.4c1.6,0,2.4-1.1,2.4-2.6v-5.2c0-0.4-0.3-0.5-1.2-0.6v-0.4h2.9v7.3c0,0.9,0.8,0.9,1.1,0.9V35L111.9,35.9z"/>
<path class="st1" d="M116.8,32.7h0.3c0.4,1.3,0.8,2.8,2.5,2.8c1.2,0,1.9-0.7,1.9-1.9c0-1.3-1.3-1.7-2.3-2.3
	c-1.2-0.7-2.3-1.2-2.3-2.7c0-1.6,1.5-2.4,2.9-2.4c1,0,1.9,0.3,2.8,0.7v2.3h-0.3c-0.3-1.3-1.1-2.5-2.6-2.5c-0.9,0-1.5,0.6-1.5,1.5
	c0,1.9,4.8,1.8,4.8,4.9c0,2-1.7,2.9-3.5,2.9c-1,0-1.9-0.2-2.8-0.7V32.7z"/>
<path class="st1" d="M133,32.9c-0.8,1.8-1.9,3.1-4,3.1c-2.9,0-4.3-2.5-4.3-5.1c0-2.5,2.1-4.7,4.6-4.7c1.2,0,3.5,0.7,3.5,2.2
	c0,0.5-0.2,0.9-0.8,0.9c-1.5,0-0.3-2.7-2.7-2.7c-2.1,0-2.8,2.4-2.8,4.1c0,2,1,4.1,3.2,4.1c1.3,0,2.4-0.9,2.9-2L133,32.9z"/>
<path class="st1" d="M141.8,35.9v-1.5c-0.8,0.9-2,1.5-3.3,1.5c-2.3,0-2.8-1.1-2.8-2.7v-5.9c0-0.4-0.3-0.5-1.3-0.6v-0.4h3v7.4
	c0,1.1,0.9,1.4,1.9,1.4c1.6,0,2.4-1.1,2.4-2.6v-5.2c0-0.4-0.3-0.5-1.2-0.6v-0.4h2.9v7.3c0,0.9,0.8,0.9,1.1,0.9V35L141.8,35.9z"/>
<path class="st1" d="M149.5,34.1c0,1.1,0.3,1.1,1.2,1.2v0.4h-4.1v-0.4c1-0.1,1.2-0.1,1.2-1.2V23.6c0-0.5,0-1.1-0.3-1.4
	c-0.2-0.2-0.5-0.3-0.9-0.3v-0.3c1-0.3,2-0.7,2.9-1V34.1z"/>
<path class="st1" d="M154.2,31.1c0-1.6,0.6-4.5,2.7-4.5c2.5,0,2.7,3.2,2.7,5c0,1.7-0.7,3.9-2.8,3.9
	C154.8,35.5,154.2,32.7,154.2,31.1z M152.4,31c0,2.7,1.6,5,4.5,5c2.8,0,4.6-2.1,4.6-4.9c0-2.7-1.8-4.9-4.6-4.9
	C154.2,26.2,152.4,28.4,152.4,31z"/>
<path class="st1" d="M163.4,32.7h0.3c0.4,1.3,0.8,2.8,2.5,2.8c1.2,0,1.9-0.7,1.9-1.9c0-1.3-1.3-1.7-2.3-2.3
	c-1.2-0.7-2.3-1.2-2.3-2.7c0-1.6,1.5-2.4,2.9-2.4c1,0,1.9,0.3,2.8,0.7v2.3h-0.3c-0.3-1.3-1.1-2.5-2.6-2.5c-0.9,0-1.5,0.6-1.5,1.5
	c0,1.9,4.8,1.8,4.8,4.9c0,2-1.7,2.9-3.5,2.9c-1,0-1.9-0.2-2.8-0.7V32.7z"/>
<path class="st1" d="M171.5,35.7v-0.4c1-0.1,1.3-0.1,1.3-1.2V23c0-0.7-0.3-0.9-1.1-1.1v-0.2c0.9-0.3,1.8-0.8,2.8-1.1v9.8l2.9-2.1
	c0.3-0.2,0.8-0.5,0.8-0.9c0-0.5-1.4-0.6-1.7-0.6v-0.4h4.8v0.4c-1.8,0.2-3.1,1.7-4.6,2.6l3.6,4.4c0.7,0.9,1.2,1.5,2.3,1.5v0.4h-5
	v-0.4c0.3,0,1.2,0,1.2-0.5c0-0.4-0.5-0.8-0.7-1l-2.6-3.4l-0.9,0.7v3.1c0,1.1,0.3,1.1,1.2,1.2v0.4H171.5z"/>
<path class="st1" d="M185.5,28.9c0.4-1.2,1.1-2.3,2.5-2.3c1.4,0,1.9,1.1,2,2.3H185.5z M192.5,29.4c-0.5-2.2-2.2-3.2-4.4-3.2
	c-2.7,0-4.6,2.3-4.6,4.9c0,2.9,1.8,4.9,4.7,4.9c2.2,0,3.7-1.4,4.4-3.4l-0.4-0.1c-0.5,1.3-1.9,2.1-3.3,2.1c-2.3,0-3.8-1.6-3.8-3.9
	c0-0.4,0-0.8,0.1-1.2H192.5z"/>
<path class="st1" d="M197.3,34.1c0,1.1,0.3,1.1,1.2,1.2v0.4h-4.1v-0.4c1-0.1,1.2-0.1,1.2-1.2V23.6c0-0.5,0-1.1-0.3-1.4
	c-0.2-0.2-0.5-0.3-0.9-0.3v-0.3c1-0.3,2-0.7,2.9-1V34.1z"/>
<path class="st1" d="M202.2,28.9c0.4-1.2,1.1-2.3,2.5-2.3c1.4,0,1.9,1.1,2,2.3H202.2z M209.3,29.4c-0.5-2.2-2.2-3.2-4.3-3.2
	c-2.7,0-4.6,2.3-4.6,4.9c0,2.9,1.8,4.9,4.7,4.9c2.2,0,3.7-1.4,4.4-3.4l-0.4-0.1c-0.5,1.3-1.9,2.1-3.3,2.1c-2.3,0-3.8-1.6-3.8-3.9
	c0-0.4,0-0.8,0.1-1.2H209.3z"/>
<path class="st1" d="M213.8,27.5v5.7c0,1.1,0.3,1.7,1.5,1.7c0.6,0,1.3-0.5,1.7-0.8c0.4,0.2-0.1,0.5-0.3,0.7
	c-0.6,0.7-1.5,1.1-2.4,1.1c-1.6,0-2.2-1.2-2.2-2.6v-5.9H211v-0.2c0.9-0.9,1.9-1.7,2.7-2.6h0v1.7h3.2l-0.5,1.1H213.8z"/>
<path class="st1" d="M223.2,34c-0.6,0.5-1.1,0.8-1.9,0.8c-0.9,0-1.6-0.7-1.6-1.6c0-1.3,2.5-2,3.5-2.5V34z M223.2,30.2
	c-1.7,0.8-4.9,1.5-4.9,3.9c0,1,0.9,1.8,1.9,1.8c1.3,0,2-0.7,3-1.5c0,0.8,0.7,1.5,1.5,1.5c1,0,1.5-0.6,1.6-1.6H226
	c-0.1,0.3-0.3,0.7-0.6,0.7c-0.5,0-0.5-0.6-0.5-1v-5.8c0-1.3-0.7-2.1-2-2.1c-1.3,0-2.8,0.7-3.8,1.5c-0.5,0.4-0.8,0.8-0.8,1.3
	c0,0.3,0.3,0.7,0.6,0.7c0.9,0,1.1-0.6,1.1-1.4c0-0.2,0-0.3,0-0.5c0-0.6,1.1-1,1.9-1c0.8,0,1.3,0.3,1.3,1.1V30.2z"/>
<path class="st1" d="M230.8,34.1c0,1.1,0.3,1.1,1.2,1.2v0.4h-4.1v-0.4c1-0.1,1.2-0.1,1.2-1.2V23.6c0-0.5,0-1.1-0.3-1.4
	c-0.2-0.2-0.5-0.3-0.9-0.3v-0.3c1-0.3,2-0.7,2.9-1V34.1z"/>
<path class="st1" d="M252.1,21.3h0.3v5h-0.4c-0.4-2.8-2.2-5.2-5.2-5.2c-2,0-3.7,1.4-4.5,3.2c-0.6,1.2-0.8,2.9-0.8,4.3
	c0,1.9,0.4,3.1,1.4,4.7c0.8,1.2,2.2,2.3,3.9,2.3c3,0,4.9-2.2,5.4-4.9h0.4v4.8h-0.5l-0.6-1c-1.4,1-3.1,1.6-4.8,1.6
	c-4.7,0-7.6-2.9-7.6-7.6c0-4.5,3.2-7.8,7.8-7.8c1.7,0,3.1,0.6,4.6,1.6L252.1,21.3z"/>
<path class="st1" d="M257.7,34.1c0,1.1,0.3,1.1,1.2,1.2v0.4h-4.1v-0.4c1-0.1,1.2-0.1,1.2-1.2V23.6c0-0.5,0-1.1-0.3-1.4
	c-0.2-0.2-0.5-0.3-0.9-0.3v-0.3c1-0.3,2-0.7,2.9-1V34.1z"/>
<path class="st1" d="M260.8,35.7v-0.4c1-0.1,1.2-0.1,1.2-1.2v-5.2c0-0.5,0-1.1-0.4-1.3c-0.3-0.2-0.5-0.2-0.8-0.2v-0.2
	c0.9-0.4,1.9-0.8,2.9-1.1v8.1c0,1.1,0.3,1.1,1.2,1.2v0.4H260.8z M263.8,21.7c0,0.6-0.4,1.1-1,1.1c-0.6,0-1.1-0.5-1.1-1.1
	c0-0.6,0.5-1.1,1.1-1.1C263.3,20.6,263.8,21.2,263.8,21.7z"/>
<path class="st1" d="M266.7,35.7v-0.4c1-0.1,1.2-0.1,1.2-1.2v-5.3c0-0.8-0.3-1.1-1.1-1.4v-0.2c1-0.3,1.8-0.7,2.8-1v1.6
	c0.9-0.9,1.6-1.6,2.9-1.6c1.6,0,3.1,1.2,3.1,2.8v5.1c0,1.1,0.6,1.1,1.3,1.2v0.4h-4.3v-0.4c1-0.1,1.2-0.1,1.2-1.2v-4.7
	c0-1.4-0.8-2.3-2.2-2.3c-0.9,0-2.2,0.9-2.2,1.9v5.1c0,1.1,0.3,1.1,1.2,1.2v0.4H266.7z"/>
<path class="st1" d="M280.7,20.6c-0.6,0-1.1,0.5-1.1,1.1c0,0.6,0.5,1.1,1.1,1.1c0.6,0,1-0.6,1-1.1C281.8,21.2,281.3,20.6,280.7,20.6
	z M282.9,35.7v-0.4c-0.9-0.1-1.2-0.1-1.2-1.2V26c-1,0.4-1.9,0.8-2.9,1.1v0.2c0.3,0,0.5,0.1,0.8,0.2c0.4,0.3,0.4,0.9,0.4,1.3v5.2
	c0,1.1-0.3,1.1-1.2,1.2v0.4H282.9z"/>
<path class="st1" d="M292.7,32.9c-0.8,1.8-1.9,3.1-4,3.1c-2.9,0-4.3-2.5-4.3-5.1c0-2.5,2.1-4.7,4.6-4.7c1.2,0,3.5,0.7,3.5,2.2
	c0,0.5-0.2,0.9-0.8,0.9c-1.5,0-0.3-2.7-2.7-2.7c-2.1,0-2.8,2.4-2.8,4.1c0,2,1,4.1,3.2,4.1c1.3,0,2.4-0.9,2.9-2L292.7,32.9z"/>
<path class="st1" d="M299.2,34c-0.6,0.5-1.1,0.8-1.9,0.8c-0.9,0-1.6-0.7-1.6-1.6c0-1.3,2.5-2,3.5-2.5V34z M299.2,30.2
	c-1.7,0.8-4.9,1.5-4.9,3.9c0,1,0.9,1.8,1.9,1.8c1.3,0,2-0.7,3-1.5c0,0.8,0.7,1.5,1.5,1.5c1,0,1.5-0.6,1.6-1.6h-0.3
	c-0.1,0.3-0.3,0.7-0.6,0.7c-0.5,0-0.5-0.6-0.5-1v-5.8c0-1.3-0.7-2.1-2-2.1c-1.3,0-2.8,0.7-3.8,1.5c-0.5,0.4-0.8,0.8-0.8,1.3
	c0,0.3,0.3,0.7,0.6,0.7c0.9,0,1.1-0.6,1.1-1.4c0-0.2,0-0.3,0-0.5c0-0.6,1.1-1,1.9-1c0.8,0,1.3,0.3,1.3,1.1V30.2z"/>
<path class="st1" d="M306.8,34.1c0,1.1,0.3,1.1,1.2,1.2v0.4h-4.1v-0.4c1-0.1,1.2-0.1,1.2-1.2V23.6c0-0.5,0-1.1-0.3-1.4
	c-0.2-0.2-0.5-0.3-0.9-0.3v-0.3c1-0.3,2-0.7,2.9-1V34.1z"/>
<path class="st1" d="M91.6,51.1c-0.6,0-1.3,0.1-1.9,0.1v-6c0-1.1,0.5-1.3,1.6-1.3c2.3,0,3.7,1.4,3.7,3.6
	C95,49.7,93.8,50.9,91.6,51.1z M86,44c1,0,1.5,0.1,1.5,1.2v11.5c0.1,1.1-0.4,1.2-1.6,1.2v0.5h5.6v-0.5c-1.3,0-1.8-0.1-1.8-1.2v-5
	c0.9,0,1.9,0.2,2.6,0.9c1.3,1.3,3,4.3,3.9,5.8h3.6v-0.5c-1,0-1.7-0.4-2.1-1.2c-0.9-1.8-2.3-3.8-3.7-5.3c2-0.7,3.4-1.7,3.4-3.9
	c0-3-2.9-4-5.5-4c-2,0-3.9,0.1-5.9,0.1V44z"/>
<path class="st1" d="M102.7,51.6c0.4-1.2,1.1-2.3,2.5-2.3c1.4,0,1.9,1.1,2,2.3H102.7z M109.8,52.1c-0.5-2.1-2.2-3.2-4.3-3.2
	c-2.7,0-4.6,2.3-4.6,4.9c0,2.9,1.8,4.9,4.7,4.9c2.2,0,3.7-1.4,4.4-3.4l-0.4-0.1c-0.5,1.3-1.8,2.1-3.2,2.1c-2.3,0-3.8-1.6-3.8-3.9
	c0-0.4,0-0.8,0.1-1.2H109.8z"/>
<path class="st1" d="M112.7,60.6c0-0.7,0.6-1.6,1.1-1.8c0.9,0.3,2.8,0.3,4.2,0.3c1,0,1.9,0.4,1.9,1.5c0,1.7-2.3,2-3.6,2
	C114.9,62.6,112.7,62.6,112.7,60.6z M114,52.1c0-1.2,0.4-2.8,1.8-2.8s1.9,1.5,1.9,2.7c0,1.2-0.5,2.6-1.9,2.6
	C114.5,54.7,114,53.2,114,52.1z M115.8,48.8c-1.8,0-3.4,1.2-3.4,3.1c0,1.2,0.4,2.2,1.5,2.7c-0.9,0.5-1.6,1-1.6,2.1
	c0,0.8,0.4,1.4,1.1,1.8c-1,0.4-1.9,1.2-1.9,2.3c0,1.9,3.1,2,4.4,2c2,0,5.2-0.2,5.2-2.8c0-2.5-3.1-2.6-4.9-2.7c-1,0-3,0.2-3-1.3
	c0-0.7,0.5-1,1-1.3c0.5,0.1,1,0.2,1.5,0.2c2,0,3.6-1.1,3.6-3.2c0-0.8-0.2-1.2-0.7-1.8c0.7-0.5,1,0.4,1.6,0.4c0.4,0,0.7-0.3,0.7-0.7
	c0-0.5-0.3-0.8-0.8-0.8c-0.6,0-1.3,0.5-1.7,0.8C117.6,49.2,116.7,48.8,115.8,48.8z"/>
<path class="st1" d="M129.6,58.6v-1.5c-0.8,0.9-2,1.5-3.3,1.5c-2.3,0-2.7-1.1-2.7-2.7V50c0-0.4-0.3-0.5-1.3-0.6v-0.4h3v7.4
	c0,1.1,0.9,1.4,1.9,1.4c1.6,0,2.4-1.1,2.4-2.6V50c0-0.4-0.3-0.5-1.2-0.6v-0.4h2.9v7.3c0,0.9,0.8,0.9,1.1,0.9v0.3L129.6,58.6z"/>
<path class="st1" d="M137.2,56.8c0,1.1,0.3,1.1,1.2,1.2v0.4h-4.1v-0.4c1-0.1,1.2-0.1,1.2-1.2V46.3c0-0.5,0-1.1-0.3-1.4
	c-0.2-0.2-0.5-0.3-0.9-0.3v-0.3c1-0.3,2-0.7,2.9-1V56.8z"/>
<path class="st1" d="M145.2,56.6c-0.6,0.5-1.1,0.8-1.9,0.8c-0.9,0-1.5-0.7-1.5-1.6c0-1.3,2.5-2,3.5-2.5V56.6z M145.2,52.9
	c-1.7,0.8-4.9,1.5-4.9,3.8c0,1,0.9,1.8,1.9,1.8c1.3,0,2-0.7,3-1.5c0,0.8,0.7,1.5,1.5,1.5c1,0,1.5-0.6,1.6-1.6h-0.3
	c-0.1,0.3-0.3,0.7-0.6,0.7c-0.5,0-0.5-0.6-0.5-1v-5.7c0-1.3-0.7-2.1-2-2.1c-1.3,0-2.8,0.7-3.8,1.5c-0.4,0.4-0.8,0.8-0.8,1.3
	c0,0.3,0.3,0.7,0.6,0.7c0.9,0,1.1-0.6,1.1-1.4c0-0.2,0-0.3,0-0.5c0-0.6,1.1-1,1.9-1c0.8,0,1.3,0.3,1.3,1.1V52.9z"/>
<path class="st1" d="M152.4,50.1v5.7c0,1.1,0.3,1.7,1.5,1.7c0.6,0,1.3-0.5,1.7-0.8c0.4,0.2-0.1,0.5-0.3,0.7
	c-0.6,0.7-1.5,1.1-2.4,1.1c-1.5,0-2.2-1.2-2.2-2.6v-5.9h-1.1V50c0.9-0.9,1.9-1.7,2.7-2.6h0v1.7h3.2l-0.5,1.1H152.4z"/>
<path class="st1" d="M158.6,53.7c0-1.6,0.6-4.5,2.7-4.5c2.5,0,2.7,3.2,2.7,5c0,1.7-0.7,3.9-2.7,3.9
	C159.2,58.2,158.6,55.4,158.6,53.7z M156.8,53.6c0,2.7,1.6,4.9,4.5,4.9c2.8,0,4.6-2.1,4.6-4.9c0-2.7-1.8-4.9-4.6-4.9
	C158.6,48.8,156.8,51,156.8,53.6z"/>
<path class="st1" d="M167.5,58.3v-0.4c0.9-0.1,1.2-0.1,1.2-1.2v-5.4c0-0.8-0.2-0.9-1-1.2v-0.2c0.9-0.3,1.8-0.8,2.6-1.1v1.5
	c0.5-0.6,1.2-1.6,2.1-1.6c0.6,0,1.1,0.3,1.1,1c0,0.5-0.4,0.8-0.8,0.8c-0.3,0-0.7-0.4-1.3-0.4c-0.4,0-1.2,0.6-1.2,0.9v5.7
	c0,1.1,0.3,1.1,1.4,1.2v0.4H167.5z"/>
<path class="st1" d="M174.1,49.1h4.7v0.4c-0.4,0-1.6,0-1.6,0.6c0,0.1,0.1,0.3,0.3,0.6l2.9,5.5l1.7-5c0.1-0.5,0.2-0.8,0.2-1.1
	c0-0.7-1-0.7-1.5-0.7v-0.4h3.6v0.4c-1,0-1.3,0.4-1.6,1.3l-3.5,9.9c-0.4,1-0.8,2.3-2,2.3c-0.5,0-0.8-0.4-0.8-0.9
	c0-0.5,0.3-0.9,0.8-0.9c0.2,0,0.5,0.1,0.7,0.1c0.6,0.1,0.9-0.6,1-1l0.7-2.1l-4.2-7.6c-0.5-0.9-0.4-0.9-1.4-1.1V49.1z"/>
<path class="st1" d="M196.3,46.1l2.4,6.1H194L196.3,46.1z M194.1,58.3v-0.5c-0.6-0.1-1.7-0.1-1.7-0.9c0-0.6,1.2-3.5,1.5-4.2h5.1
	c0.3,0.9,1.5,3.7,1.5,4.3c0,0.9-1.2,0.9-1.8,0.9v0.5h5.6v-0.5c-1.2-0.2-1.4-0.8-1.9-2l-5-12.8c-0.5,0.6-1,1.3-1.7,1.7l0.4,0.6
	l-4.4,11.4c-0.2,0.6-0.8,1-1.4,1v0.5H194.1z"/>
<path class="st1" d="M212.5,56.6c-0.6,0.6-1.4,1.1-2.3,1.1c-0.9,0-3.1-0.7-3.1-4.3c0-1.8,0.6-4.1,2.9-4.1c0.7,0,2.6,0.4,2.6,3.1
	V56.6z M212.5,49.5c-0.8-0.4-1.6-0.7-2.5-0.7c-2.9,0-4.7,2.1-4.7,5c0,2.5,1.5,4.8,4.1,4.8c1.2,0,2.2-0.5,3-1.5h0v1.5l2.8-0.8v-0.1
	l-1.1-0.3V43.3c-1,0.3-2,0.8-3,1.2v0.2c0.3,0,0.5,0,0.8,0.2c0.6,0.3,0.5,0.8,0.5,1.2V49.5z"/>
<path class="st1" d="M216.5,49.1h4.5v0.4c-0.4,0-1.4,0-1.4,0.6c0,0.1,0.1,0.5,0.3,1l2.1,5.3l2.4-5.4c0.1-0.3,0.2-0.6,0.2-0.9
	c0-0.6-1-0.6-1.4-0.6v-0.4h3.3v0.4c-0.8,0-1.2,0.5-1.5,1.2l-3.6,7.9h-0.4l-3.1-7.9c-0.3-0.8-0.4-1.2-1.5-1.2V49.1z"/>
<path class="st1" d="M227.9,58.3v-0.4c1-0.1,1.2-0.1,1.2-1.2v-5.1c0-0.5,0-1.1-0.4-1.3c-0.3-0.2-0.5-0.2-0.8-0.2v-0.2
	c0.9-0.4,1.9-0.8,2.9-1.1v8c0,1.1,0.3,1.1,1.2,1.2v0.4H227.9z M230.9,44.4c0,0.6-0.4,1.1-1,1.1c-0.6,0-1.1-0.5-1.1-1.1
	c0-0.6,0.5-1.1,1.1-1.1C230.4,43.3,230.9,43.9,230.9,44.4z"/>
<path class="st1" d="M234,55.4h0.3c0.4,1.3,0.8,2.8,2.4,2.8c1.2,0,1.9-0.7,1.9-1.9c0-1.3-1.3-1.7-2.3-2.3c-1.2-0.7-2.3-1.2-2.3-2.7
	c0-1.6,1.5-2.4,2.9-2.4c1,0,1.9,0.3,2.8,0.7v2.3h-0.3c-0.3-1.3-1.1-2.5-2.6-2.5c-0.9,0-1.5,0.6-1.5,1.5c0,1.8,4.8,1.8,4.8,4.9
	c0,2-1.7,2.9-3.5,2.9c-1,0-1.9-0.2-2.7-0.7V55.4z"/>
<path class="st1" d="M244,51.6c0.4-1.2,1.1-2.3,2.5-2.3c1.4,0,1.9,1.1,2,2.3H244z M251,52.1c-0.5-2.1-2.2-3.2-4.3-3.2
	c-2.7,0-4.6,2.3-4.6,4.9c0,2.9,1.8,4.9,4.7,4.9c2.2,0,3.7-1.4,4.4-3.4l-0.4-0.1c-0.5,1.3-1.8,2.1-3.2,2.1c-2.3,0-3.8-1.6-3.8-3.9
	c0-0.4,0-0.8,0.1-1.2H251z"/>
<path class="st1" d="M252.8,58.3v-0.4c0.9-0.1,1.2-0.1,1.2-1.2v-5.4c0-0.8-0.2-0.9-1-1.2v-0.2c0.9-0.3,1.8-0.8,2.6-1.1v1.5
	c0.5-0.6,1.2-1.6,2.1-1.6c0.6,0,1.1,0.3,1.1,1c0,0.5-0.4,0.8-0.8,0.8c-0.3,0-0.7-0.4-1.3-0.4c-0.4,0-1.2,0.6-1.2,0.9v5.7
	c0,1.1,0.3,1.1,1.4,1.2v0.4H252.8z"/>
<path class="st1" d="M260.2,55.4h0.3c0.4,1.3,0.8,2.8,2.4,2.8c1.2,0,1.9-0.7,1.9-1.9c0-1.3-1.3-1.7-2.3-2.3
	c-1.2-0.7-2.3-1.2-2.3-2.7c0-1.6,1.5-2.4,2.9-2.4c1,0,1.9,0.3,2.8,0.7v2.3h-0.3c-0.3-1.3-1.1-2.5-2.6-2.5c-0.9,0-1.5,0.6-1.5,1.5
	c0,1.8,4.8,1.8,4.8,4.9c0,2-1.7,2.9-3.5,2.9c-1,0-1.9-0.2-2.7-0.7V55.4z"/>
<path class="st1" d="M269.1,61.7c1.2-0.8,2.3-1.9,2.3-3.4c0-1-0.6-2.2-1.7-2.2c-0.6,0-1.2,0.5-1.2,1.1c0,1.1,0.9,1,1.7,1.3
	c0.3,0.2,0.3,0.4,0.3,0.6c0,0.8-0.9,1.7-1.6,2.1L269.1,61.7z"/>
<path class="st1" d="M279.3,58.3v-0.5c1.2,0,1.7-0.1,1.7-1.2V45.2c0-1.1-0.8-1.2-1.7-1.2v-0.4h5.9V44c-1.5,0-2,0.4-2,1.4v10.8
	c0,1.7,0.5,1.7,2.6,1.7c0.9,0,1.8,0,2.7-0.1c1.1-0.2,1.7-0.9,2.4-1.8c0.6-0.8,1.1-1.6,1.5-2.4h0.4l-1.2,4.8H279.3z"/>
<path class="st1" d="M294.8,58.3v-0.5c1.2,0,1.7-0.1,1.7-1.2V45.2c0-1.1-0.8-1.2-1.7-1.2v-0.4h5.9V44c-1.5,0-2,0.4-2,1.4v10.8
	c0,1.7,0.5,1.7,2.6,1.7c0.9,0,1.8,0,2.7-0.1c1.1-0.2,1.7-0.9,2.4-1.8c0.6-0.8,1.1-1.6,1.5-2.4h0.5l-1.2,4.8H294.8z"/>
<path class="st1" d="M322.9,44h0.3v5h-0.4c-0.4-2.8-2.2-5.2-5.2-5.2c-2,0-3.7,1.4-4.5,3.2c-0.6,1.2-0.8,2.9-0.8,4.3
	c0,1.9,0.4,3.1,1.4,4.7c0.8,1.2,2.2,2.3,3.8,2.3c3,0,4.9-2.2,5.4-4.9h0.4v4.8h-0.5l-0.6-1c-1.4,1-3,1.6-4.8,1.6
	c-4.7,0-7.5-2.9-7.5-7.6c0-4.5,3.2-7.7,7.7-7.7c1.7,0,3.1,0.6,4.6,1.6L322.9,44z"/>
<g>
	<ellipse class="st2" cx="39.9" cy="38.1" rx="39" ry="37.4"/>
	<g>
		<path class="st3" d="M54.8,19l0.9-3.4h8.6V17c-2.8,0.3-4,0.6-4,4.1v33.6c0,3.3,1.5,3.6,4,3.6v1.3H50.1v-1.3
			c3.9-0.3,4.5-0.8,4.6-3.6V21.3h-0.1"/>
		<path class="st3" d="M31.2,16.5v0.1c-1.8,2-3,3.9-3,6c0,1.4,0.5,2.9,1,4.1l10.2,26.3c0.3,0.7,0.4,1.2,0.4,1.3
			c0,0.2-0.2,0.9-0.5,1.5l-1,2.5l-12.3-32c-0.9-2.4-2.8-8-5.5-9.8v-0.1H31.2z M55.4,16.5c-0.8,1.7-1.7,3.5-2.4,5.3h-0.1
			c-0.3-1.8-0.9-3.8-2.2-5.1v-0.2H55.4z M47.4,15.7v0.9c3.5,0,4.7,2.7,4.7,6c0,0.9-0.2,1.9-0.6,2.8L41.4,51l-9.2-23.8
			c-0.4-1.2-1.4-3.5-1.4-4.7c0-1.9,1.5-6,5.5-6v-0.9H18.6v0.9c2.8,0.6,4.6,4.5,6.4,9.1l13.1,34.2h0.6l13.5-34.1
			c1.3-3.4,4.1-7,5.8-8.4c0.5-0.4,1.4-0.7,2-0.7v-0.9H47.4z"/>
		<path class="st3" d="M22.2,18.5l-2.8-2.9l-4.7,0V17c2.8,0.3,4,0.6,4,4.2v33.8c0,3.3-1.5,3.6-4,3.6v1.3h14.1v-1.3
			c-3.9-0.3-4.5-0.8-4.6-3.6V24.2l-0.2-1.9"/>
	</g>
</g>
</svg>
